<mxfile host="app.diagrams.net" agent="Mozilla/5.0 (Windows NT 10.0; Win64; x64; rv:137.0) Gecko/20100101 Firefox/137.0" version="26.2.12">
  <diagram name="Page-1" id="MGNLHRWP5PNADK0xwRSG">
    <mxGraphModel dx="2278" dy="1845" grid="1" gridSize="10" guides="1" tooltips="1" connect="1" arrows="1" fold="1" page="1" pageScale="1" pageWidth="850" pageHeight="1100" math="0" shadow="0">
      <root>
        <mxCell id="0" />
        <mxCell id="1" parent="0" />
        <mxCell id="kVifwwk1PHYqYm0ACJ3H-1" value="" style="ellipse;whiteSpace=wrap;html=1;" vertex="1" parent="1">
          <mxGeometry x="180" y="40" width="120" height="80" as="geometry" />
        </mxCell>
        <mxCell id="kVifwwk1PHYqYm0ACJ3H-2" value="" style="ellipse;whiteSpace=wrap;html=1;" vertex="1" parent="1">
          <mxGeometry x="180" y="270" width="120" height="80" as="geometry" />
        </mxCell>
        <mxCell id="kVifwwk1PHYqYm0ACJ3H-4" value="" style="ellipse;whiteSpace=wrap;html=1;" vertex="1" parent="1">
          <mxGeometry x="180" y="390" width="120" height="80" as="geometry" />
        </mxCell>
        <mxCell id="kVifwwk1PHYqYm0ACJ3H-5" value="" style="ellipse;whiteSpace=wrap;html=1;" vertex="1" parent="1">
          <mxGeometry x="180" y="610" width="120" height="80" as="geometry" />
        </mxCell>
        <mxCell id="kVifwwk1PHYqYm0ACJ3H-6" value="&lt;font style=&quot;font-size: 15px;&quot;&gt;Search Flights&lt;/font&gt;" style="text;html=1;align=center;verticalAlign=middle;whiteSpace=wrap;rounded=0;" vertex="1" parent="1">
          <mxGeometry x="210" y="65" width="60" height="30" as="geometry" />
        </mxCell>
        <mxCell id="kVifwwk1PHYqYm0ACJ3H-7" value="&lt;div&gt;&lt;font style=&quot;font-size: 15px;&quot;&gt;Book&lt;/font&gt;&lt;/div&gt;&lt;div&gt;&lt;font style=&quot;font-size: 15px;&quot;&gt;Flights&lt;/font&gt;&lt;/div&gt;" style="text;html=1;align=center;verticalAlign=middle;whiteSpace=wrap;rounded=0;" vertex="1" parent="1">
          <mxGeometry x="210" y="295" width="60" height="30" as="geometry" />
        </mxCell>
        <mxCell id="kVifwwk1PHYqYm0ACJ3H-9" value="&lt;font style=&quot;font-size: 15px;&quot;&gt;Payment&lt;/font&gt;" style="text;html=1;align=center;verticalAlign=middle;whiteSpace=wrap;rounded=0;" vertex="1" parent="1">
          <mxGeometry x="210" y="415" width="60" height="30" as="geometry" />
        </mxCell>
        <mxCell id="kVifwwk1PHYqYm0ACJ3H-10" value="&lt;font style=&quot;font-size: 15px;&quot;&gt;CheckIn&lt;/font&gt;" style="text;html=1;align=center;verticalAlign=middle;whiteSpace=wrap;rounded=0;" vertex="1" parent="1">
          <mxGeometry x="210" y="635" width="60" height="30" as="geometry" />
        </mxCell>
        <mxCell id="kVifwwk1PHYqYm0ACJ3H-13" value="&lt;font style=&quot;font-size: 15px;&quot;&gt;Select Flights&lt;/font&gt;" style="ellipse;whiteSpace=wrap;html=1;" vertex="1" parent="1">
          <mxGeometry x="180" y="150" width="120" height="80" as="geometry" />
        </mxCell>
        <mxCell id="kVifwwk1PHYqYm0ACJ3H-14" value="&lt;font style=&quot;font-size: 15px;&quot;&gt;Cancel Booking&lt;/font&gt;" style="ellipse;whiteSpace=wrap;html=1;" vertex="1" parent="1">
          <mxGeometry x="180" y="500" width="120" height="80" as="geometry" />
        </mxCell>
        <mxCell id="kVifwwk1PHYqYm0ACJ3H-16" value="&lt;font style=&quot;font-size: 15px;&quot;&gt;User&lt;/font&gt;" style="shape=umlActor;verticalLabelPosition=bottom;verticalAlign=top;html=1;outlineConnect=0;" vertex="1" parent="1">
          <mxGeometry x="-50" y="305" width="60" height="110" as="geometry" />
        </mxCell>
        <mxCell id="kVifwwk1PHYqYm0ACJ3H-17" value="&lt;font style=&quot;font-size: 15px;&quot;&gt;LogIn&lt;/font&gt;" style="ellipse;whiteSpace=wrap;html=1;" vertex="1" parent="1">
          <mxGeometry x="180" y="-70" width="120" height="80" as="geometry" />
        </mxCell>
        <mxCell id="kVifwwk1PHYqYm0ACJ3H-18" style="edgeStyle=orthogonalEdgeStyle;rounded=0;orthogonalLoop=1;jettySize=auto;html=1;exitX=0.5;exitY=1;exitDx=0;exitDy=0;" edge="1" parent="1" source="kVifwwk1PHYqYm0ACJ3H-9" target="kVifwwk1PHYqYm0ACJ3H-9">
          <mxGeometry relative="1" as="geometry" />
        </mxCell>
        <mxCell id="kVifwwk1PHYqYm0ACJ3H-19" value="" style="endArrow=none;html=1;rounded=0;entryX=0.025;entryY=0.738;entryDx=0;entryDy=0;entryPerimeter=0;" edge="1" parent="1" target="kVifwwk1PHYqYm0ACJ3H-17">
          <mxGeometry relative="1" as="geometry">
            <mxPoint x="20" y="350" as="sourcePoint" />
            <mxPoint x="410" y="290" as="targetPoint" />
          </mxGeometry>
        </mxCell>
        <mxCell id="kVifwwk1PHYqYm0ACJ3H-20" value="" style="endArrow=none;html=1;rounded=0;entryX=0.025;entryY=0.688;entryDx=0;entryDy=0;entryPerimeter=0;" edge="1" parent="1" target="kVifwwk1PHYqYm0ACJ3H-1">
          <mxGeometry relative="1" as="geometry">
            <mxPoint x="20" y="360" as="sourcePoint" />
            <mxPoint x="410" y="290" as="targetPoint" />
          </mxGeometry>
        </mxCell>
        <mxCell id="kVifwwk1PHYqYm0ACJ3H-22" value="" style="endArrow=none;html=1;rounded=0;" edge="1" parent="1" target="kVifwwk1PHYqYm0ACJ3H-13">
          <mxGeometry relative="1" as="geometry">
            <mxPoint x="20" y="370" as="sourcePoint" />
            <mxPoint x="410" y="290" as="targetPoint" />
          </mxGeometry>
        </mxCell>
        <mxCell id="kVifwwk1PHYqYm0ACJ3H-23" value="" style="endArrow=none;html=1;rounded=0;entryX=-0.008;entryY=0.675;entryDx=0;entryDy=0;entryPerimeter=0;" edge="1" parent="1" target="kVifwwk1PHYqYm0ACJ3H-2">
          <mxGeometry relative="1" as="geometry">
            <mxPoint x="20" y="370" as="sourcePoint" />
            <mxPoint x="410" y="290" as="targetPoint" />
          </mxGeometry>
        </mxCell>
        <mxCell id="kVifwwk1PHYqYm0ACJ3H-25" value="" style="endArrow=none;html=1;rounded=0;" edge="1" parent="1" target="kVifwwk1PHYqYm0ACJ3H-4">
          <mxGeometry relative="1" as="geometry">
            <mxPoint x="20" y="380" as="sourcePoint" />
            <mxPoint x="410" y="430" as="targetPoint" />
          </mxGeometry>
        </mxCell>
        <mxCell id="kVifwwk1PHYqYm0ACJ3H-26" value="" style="endArrow=none;html=1;rounded=0;" edge="1" parent="1" target="kVifwwk1PHYqYm0ACJ3H-14">
          <mxGeometry relative="1" as="geometry">
            <mxPoint x="20" y="380" as="sourcePoint" />
            <mxPoint x="410" y="430" as="targetPoint" />
          </mxGeometry>
        </mxCell>
        <mxCell id="kVifwwk1PHYqYm0ACJ3H-29" value="" style="endArrow=none;html=1;rounded=0;" edge="1" parent="1" target="kVifwwk1PHYqYm0ACJ3H-5">
          <mxGeometry relative="1" as="geometry">
            <mxPoint x="20" y="390" as="sourcePoint" />
            <mxPoint x="410" y="430" as="targetPoint" />
          </mxGeometry>
        </mxCell>
        <mxCell id="kVifwwk1PHYqYm0ACJ3H-30" value="&lt;font style=&quot;font-size: 15px;&quot;&gt;Admin&lt;/font&gt;" style="shape=umlActor;verticalLabelPosition=bottom;verticalAlign=top;html=1;outlineConnect=0;" vertex="1" parent="1">
          <mxGeometry x="670" y="280" width="70" height="130" as="geometry" />
        </mxCell>
        <mxCell id="kVifwwk1PHYqYm0ACJ3H-31" value="&lt;font style=&quot;font-size: 15px;&quot;&gt;AddFlight&lt;/font&gt;" style="ellipse;whiteSpace=wrap;html=1;" vertex="1" parent="1">
          <mxGeometry x="470" y="150" width="120" height="80" as="geometry" />
        </mxCell>
        <mxCell id="kVifwwk1PHYqYm0ACJ3H-32" value="&lt;font style=&quot;font-size: 15px;&quot;&gt;Cancel Flight&lt;/font&gt;" style="ellipse;whiteSpace=wrap;html=1;" vertex="1" parent="1">
          <mxGeometry x="470" y="260" width="120" height="80" as="geometry" />
        </mxCell>
        <mxCell id="kVifwwk1PHYqYm0ACJ3H-33" value="&lt;div&gt;&lt;font style=&quot;font-size: 15px;&quot;&gt;Update Flight&lt;/font&gt;&lt;/div&gt;&lt;div&gt;&lt;font style=&quot;font-size: 15px;&quot;&gt;Details&lt;/font&gt;&lt;/div&gt;" style="ellipse;whiteSpace=wrap;html=1;" vertex="1" parent="1">
          <mxGeometry x="470" y="380" width="120" height="80" as="geometry" />
        </mxCell>
        <mxCell id="kVifwwk1PHYqYm0ACJ3H-34" value="" style="endArrow=none;html=1;rounded=0;exitX=0.95;exitY=0.775;exitDx=0;exitDy=0;exitPerimeter=0;" edge="1" parent="1" source="kVifwwk1PHYqYm0ACJ3H-31">
          <mxGeometry relative="1" as="geometry">
            <mxPoint x="380" y="400" as="sourcePoint" />
            <mxPoint x="660" y="340" as="targetPoint" />
          </mxGeometry>
        </mxCell>
        <mxCell id="kVifwwk1PHYqYm0ACJ3H-35" value="" style="endArrow=none;html=1;rounded=0;exitX=0.975;exitY=0.65;exitDx=0;exitDy=0;exitPerimeter=0;" edge="1" parent="1" source="kVifwwk1PHYqYm0ACJ3H-32">
          <mxGeometry relative="1" as="geometry">
            <mxPoint x="380" y="400" as="sourcePoint" />
            <mxPoint x="660" y="350" as="targetPoint" />
          </mxGeometry>
        </mxCell>
        <mxCell id="kVifwwk1PHYqYm0ACJ3H-36" value="" style="endArrow=none;html=1;rounded=0;" edge="1" parent="1" source="kVifwwk1PHYqYm0ACJ3H-33">
          <mxGeometry relative="1" as="geometry">
            <mxPoint x="380" y="400" as="sourcePoint" />
            <mxPoint x="660" y="360" as="targetPoint" />
          </mxGeometry>
        </mxCell>
      </root>
    </mxGraphModel>
  </diagram>
</mxfile>
